<svg xmlns="http://www.w3.org/2000/svg" viewBox="0 0 217.17 217.17"><defs><style>.a{opacity:0.5;}.b{fill:#ff5e44;}</style></defs><title>mark</title><g class="a"><path class="b" d="M161.58,41.83h-1.12l.74,76h.4l.45-76ZM160.5,183l-2,76,1.45,0,1.11-76Zm2.43,0h-.44l2,76,1.55-.05Zm-4.2-.1-6.46,75.73,1.56.12,5.34-75.81Zm6.07,0-.43,0,6.22,75.74,1.57-.14Zm-7.93-.18-10.68,75.24c.52.08,1,.15,1.55.21l9.56-75.39Zm9.78-.05-.43.06L176.69,258l1.55-.22ZM155,182.36l-14.9,74.53c.47.09,1,.19,1.43.27l14-74.69Zm13.42-.07-.38.08L182.72,257l1.58-.33ZM153.3,182l-19.22,73.53,1.47.37,18.22-73.78Zm16.94-.1-.39.1,18.9,73.62,1.54-.41Zm-18.74-.43-23.3,72.34c.48.16,1,.31,1.43.45L152,181.59Zm20.44-.09-.35.12,23.1,72.4c.52-.17,1-.33,1.55-.51Zm-22.14-.51-27.46,70.86,1.46.56L150.22,181Zm23.91-.14-.41.16,27.22,71,1.45-.57Zm-25.64-.59-31.38,69.22,1.41.63,30.39-69.66Zm27.34-.15-.55.25,31.47,69.18,1.26-.58Zm-28.93-.63-35.4,67.25c.46.24.91.48,1.38.71l34.43-67.75Zm30.48-.15-.31.16,35.06,67.43c.49-.25,1-.51,1.45-.77Zm-32.1-.76-39.14,65.15,1.34.79,38.18-65.71Zm33.78-.21-.46.28,39,65.25,1.25-.76Zm-35.31-.77-42.82,62.79,1.32.88,41.84-63.44Zm36.81-.21-.34.23,42.47,63,1.31-.9Zm-38.33-.88L95.54,236.62l1.24.94,45.39-61Zm39.82-.23-.29.23,45.88,60.59,1.29-1Zm-41.3-1L90.81,232.78l1.15,1,48.74-58.31Zm42.73-.2-.28.24L232,233.08c.42-.35.83-.71,1.23-1.06ZM139,173.87,86.28,228.66l1.06,1,52-55.43Zm45.48-.21-.32.31,52.5,54.95,1.11-1.08Zm-46.76-1.1L82,224.26c.33.36.67.72,1,1.07L138,173Zm48-.22-.3.33,55.54,51.87q.54-.57,1.05-1.14Zm-49.29-1.21L78,219.68c.31.38.62.76.94,1.13l57.86-49.28Zm50.51-.21-.26.31L245,220l1-1.23Zm-51.6-1.19L74.11,214.78,75,216l60.55-45.94Zm52.75-.32-.33.46,61.1,45.19.85-1.16Zm-53.86-1.28L70.67,209.82l.79,1.2,63.06-42.42Zm54.9-.25-.26.4,63.47,41.8c.28-.42.56-.85.83-1.28Zm-55.83-1.28-65.85,38c.25.44.51.88.77,1.31L133.51,167Zm56.74-.25-.17.31,65.68,38.23c.28-.47.55-.95.82-1.43ZM132.4,165,64.52,199.14l.69,1.36,67.41-35.1Zm58.49-.28-.17.34,67.76,34.43.72-1.45Zm-59.28-1.44L61.94,193.63c.18.43.37.85.56,1.28l69.35-31.1Zm60.07-.29-.2.44,69.65,30.44.6-1.4ZM131,161.73l-71.41,26c.19.51.37,1,.57,1.52l71-27.19Zm61.31-.41-.14.4,71.27,26.38.54-1.48Zm-61.92-1.4L57.66,182c.15.5.31,1,.47,1.51l72.38-23.17Zm62.48-.34-.11.39,72.66,22.29.45-1.53Zm-63-1.39L56,176c.12.52.25,1,.38,1.55l73.6-19Zm63.42-.36-.1.41,73.83,18c.13-.51.25-1,.37-1.54Zm-63.8-1.44L54.75,170l.3,1.55,74.56-14.71Zm64.16-.36-.07.4,74.73,13.83c.1-.52.19-1,.28-1.56Zm-64.44-1.47L53.82,163.9l.21,1.56L129.3,155Zm64.71-.38-.05.43,75.39,9.58c.06-.52.13-1,.18-1.56Zm-64.89-1.49-75.83,5.12c0,.52.07,1,.12,1.56l75.74-6.25Zm65.05-.38,0,.43,75.81,5.35c0-.52.07-1,.1-1.56ZM129,150.81l-76,.89,0,1.56,76-2Zm141.18-.39h-76v.45l76,1.11c0-.52,0-1,0-1.56M53.1,145.58,53,147.14l76,2.23,0-.44ZM270,144.86l-75.91,3.79,0,.55,75.95-2.89-.06-1.45M53.54,139.48,53.39,141l75.73,6.45,0-.43Zm216-.83L194,146.89l0,.44,75.67-7.13c-.05-.51-.1-1-.16-1.55m-215.2-5.26c-.08.48-.15,1-.22,1.45l75.21,10.9.08-.53Zm214.37-.82-75,12.48.07.42L269,134.13c-.08-.52-.16-1-.25-1.56M55.46,127.34c-.11.48-.21,1-.31,1.45l74.48,15.12.11-.51Zm212.06-.82-74.14,16.73.09.4,74.39-15.57c-.11-.52-.22-1-.34-1.56M56.94,121.35l-.39,1.43,73.5,19.35.13-.49ZM266,120.54l-73.06,20.94.12.4,73.37-19.82c-.14-.5-.28-1-.43-1.52M58.75,115.47c-.16.46-.31.93-.46,1.4l72.27,23.5.17-.5Zm205.4-.76-71.78,25,.16.48,72.1-24-.48-1.42M61,109.49c-.22.53-.43,1.07-.64,1.6l70.86,27.5.1-.26ZM262,109l-70.25,29,.22.54,70.56-28.23L262,109M63.39,104c-.21.45-.43.91-.64,1.38l69.16,31.52.2-.44Zm196-.73L191,136.37l.2.42,68.87-32.14c-.22-.46-.43-.92-.65-1.37M66.18,98.53l-.68,1.26,67.19,35.53.27-.51Zm190.43-.68-66.47,36.86.17.3,67.08-35.72-.78-1.44M69.33,93.12q-.42.67-.84,1.38l65.15,39.13.2-.32Zm184.19-.5-64.35,40.44.25.4,64.9-39.54-.8-1.3M72.7,88l-.85,1.23,62.75,42.87.29-.41Zm177.35-.58L188.19,131.6l.2.28L251,88.8l-.95-1.35M76.41,83.06l-1,1.26,60.29,46.27.25-.32Zm170-.48-59.32,47.51.27.34,60-46.62-1-1.23m-166-4.18c-.34.37-.67.75-1,1.13l57.55,49.64.32-.37Zm162.08-.5-56.55,50.77.29.33,57.29-49.93-1-1.17m-157.89-4c-.35.35-.71.71-1.05,1.07l54.67,52.79.34-.35Zm153.65-.49-53.57,53.9.34.35,54.29-53.18c-.35-.36-.7-.72-1.06-1.07M89,69.68c-.39.34-.77.69-1.15,1l51.64,55.76.33-.3Zm144.75-.41L183.19,126l.31.28,51.4-56-1.17-1.06m-140-3.61c-.41.33-.82.66-1.22,1l48.36,58.62.33-.26ZM229,65.27l-47.15,59.61.29.23,48.13-58.82-1.27-1M98.52,62l-1.26.92,45.1,61.17.36-.26Zm125.59-.37-43.84,62.08.45.33,44.57-61.57-1.18-.84M103.67,58.55l-1.34.87,41.53,63.64.33-.21ZM219,58.23l-40.24,64.48.47.29,41-64L219,58.23M109,55.42l-1.39.79,37.86,65.89.34-.19Zm104.66-.32-36.45,66.69.35.2L215,55.88l-1.4-.78m-99.26-2.48-1.34.66,34,68,.45-.22Zm93.79-.31-32.64,68.63.45.22L209.5,53l-1.35-.65M120,50.11l-1.37.58,30.08,69.79.46-.19Zm82.53-.3-28.65,70.4.46.19,29.58-70-1.39-.58M125.73,47.9c-.49.17-1,.34-1.44.52l26.09,71.38.44-.16Zm71-.24-24.63,71.9.52.18,25.49-71.6-1.38-.48M131.6,46l-1.46.43,22,72.75.46-.14Zm59.22-.21L170.35,119l.44.13,21.51-72.9-1.48-.42m-53.19-1.34-1.57.37,17.85,73.87.37-.08Zm47.19-.15-16.23,74.24.43.1,17.32-74-1.52-.34m-41.17-1-1.56.28,13.62,74.77.4-.07Zm35.14-.11-12,75,.49.08,13-74.87-1.49-.25m-29.06-.72-1.51.17,9.26,75.44L158,118Zm22.92-.08L165,118l.43,0,8.79-75.49-1.55-.16M155.77,42c-.48,0-1,0-1.45.09l5,75.83.55,0Zm10.78,0-3.45,75.92.49,0L168.05,42l-1.5-.08" transform="translate(-53 -41.83)"/></g></svg>